<svg xmlns="http://www.w3.org/2000/svg" viewBox="0 0 64 64"><g data-name="Layer 25"><path fill="#fe3745" fill-rule="evenodd" d="M46.66,48.7H21.88a7.41,7.41,0,0,1-7.28-6.35l1.84-1.05.88-.51H42.09a7.4,7.4,0,0,0,7.37-7.37V15.53h3.18A7.4,7.4,0,0,1,60,22.9V56.41l-12.45-7.2Z"/><path fill="#ffc987" fill-rule="evenodd" d="M17.32,40.79H42.09a7.4,7.4,0,0,0,7.37-7.37V15a7.4,7.4,0,0,0-7.37-7.37H11.36A7.4,7.4,0,0,0,4,15V48.47L16.44,41.3Z"/><path fill="#1e99d6" d="M14 17.2a.88.88 0 0 1-.88-.88.86.86 0 0 1 .88-.85H39.48a.83.83 0 0 1 .85.85.85.85 0 0 1-.85.88zM14 25.54a.89.89 0 0 1-.88-.88.88.88 0 0 1 .88-.85H39.48a.84.84 0 0 1 .85.85.86.86 0 0 1-.85.88zM14 33.87a.87.87 0 1 1 0-1.73H39.48a.87.87 0 0 1 0 1.73z"/></g></svg>