<svg xmlns="http://www.w3.org/2000/svg" viewBox="0 0 24 24"><path fill="#666" d="M16.974 20.342l-.948.316L16.48 22H7.52l.455-1.342-.948-.316L5.784 24H6.84l.339-1h9.642l.34 1h1.055z"/><linearGradient id="a" x1="9.894" x2="15.637" y1="18.58" y2="24.323" gradientUnits="userSpaceOnUse"><stop offset="0" stop-opacity=".1"/><stop offset="1" stop-opacity="0"/></linearGradient><path fill="url(#a)" d="M7.64 21.644l.293-.864-1.082.076.788.788zm9.334-1.302l-.948.316L16.48 22H7.996l1 1h7.825l.34 1h1.055l-1.242-3.658z"/><path fill="#CCC" d="M20.028 16.646H3.972L3 20l9 2 9-2z"/><path fill="#0277BD" d="M16 2V1a1 1 0 0 0-1-1H9a1 1 0 0 0-1 1v1H4a1 1 0 0 0-1 1v13.698a1 1 0 0 0 .783.976L12 19.5l8.217-1.826a1 1 0 0 0 .783-.976V3a1 1 0 0 0-1-1h-4z"/><path d="M20.217 17.424L12 19.25l-8.217-1.826A1 1 0 0 1 3 16.448v.25a1 1 0 0 0 .783.976L12 19.5l8.217-1.826a1 1 0 0 0 .783-.976v-.25a1 1 0 0 1-.783.976z" opacity=".1"/><path fill="#FFF" d="M4 2.25h4V2H4a1 1 0 00-1 1v.25a1 1 0 011-1zM9 .25h6a1 1 0 011 1V1a1 1 0 00-1-1H9a1 1 0 00-1 1v.25a1 1 0 011-1zM20 2h-4v.25h4a1 1 0 011 1V3a1 1 0 00-1-1z" opacity=".2"/><circle cx="10.5" cy="2" r="1" fill="#F2F2F2"/><circle cx="13.5" cy="2" r="1" fill="#F2F2F2"/><path fill="#97C6D5" d="M5 4h6.5v7H5z"/><path d="M5 4h6.5v.25H5z" opacity=".05"/><path fill="#97C6D5" d="M12.5 4H19v7h-6.5z"/><linearGradient id="b" x1="4.24" x2="12.26" y1="5.63" y2="9.37" gradientUnits="userSpaceOnUse"><stop offset="0" stop-color="#FFF" stop-opacity=".4"/><stop offset="1" stop-color="#FFF" stop-opacity="0"/></linearGradient><path fill="url(#b)" d="M5 4h6.5v7H5z"/><linearGradient id="c" x1="11.74" x2="19.76" y1="5.63" y2="9.37" gradientUnits="userSpaceOnUse"><stop offset="0" stop-color="#FFF" stop-opacity=".4"/><stop offset="1" stop-color="#FFF" stop-opacity="0"/></linearGradient><path fill="url(#c)" d="M12.5 4H19v7h-6.5z"/><path d="M12.5 4H19v.25h-6.5z" opacity=".05"/><linearGradient id="d" x1="8.363" x2="16.151" y1="14.002" y2="21.79" gradientUnits="userSpaceOnUse"><stop offset="0" stop-opacity=".1"/><stop offset="1" stop-opacity="0"/></linearGradient><path fill="url(#d)" d="M20.217 17.674L12 19.5l-8.217-1.826c-.029-.006-.052-.024-.08-.033h-.02L6.91 20.87 12 22l9-2-.685-2.366c-.034.011-.063.032-.098.04z"/><circle cx="16.5" cy="14.5" r="1.5" fill="#F2F2F2"/><circle cx="7.5" cy="14.5" r="1.5" fill="#F2F2F2"/><linearGradient id="e" x1="-320.448" x2="-318.77" y1="-226.448" y2="-224.77" gradientTransform="rotate(180 -156 -105.5)" gradientUnits="userSpaceOnUse"><stop offset="0" stop-opacity=".1"/><stop offset="1" stop-opacity="0"/></linearGradient><circle cx="7.5" cy="14.5" r="1.5" fill="url(#e)"/><linearGradient id="f" x1="-320.859" x2="-318.141" y1="-226.134" y2="-224.866" gradientTransform="rotate(180 -156 -105.5)" gradientUnits="userSpaceOnUse"><stop offset="0" stop-color="#FFF" stop-opacity=".2"/><stop offset="1" stop-color="#FFF" stop-opacity="0"/></linearGradient><circle cx="7.5" cy="14.5" r="1.5" fill="url(#f)"/><linearGradient id="g" x1="-329.448" x2="-327.77" y1="-226.448" y2="-224.77" gradientTransform="rotate(180 -156 -105.5)" gradientUnits="userSpaceOnUse"><stop offset="0" stop-opacity=".1"/><stop offset="1" stop-opacity="0"/></linearGradient><circle cx="16.5" cy="14.5" r="1.5" fill="url(#g)"/><linearGradient id="h" x1="-329.859" x2="-327.141" y1="-226.134" y2="-224.866" gradientTransform="rotate(180 -156 -105.5)" gradientUnits="userSpaceOnUse"><stop offset="0" stop-color="#FFF" stop-opacity=".2"/><stop offset="1" stop-color="#FFF" stop-opacity="0"/></linearGradient><circle cx="16.5" cy="14.5" r="1.5" fill="url(#h)"/><linearGradient id="i" x1="7.791" x2="12.215" y1="14.791" y2="19.215" gradientUnits="userSpaceOnUse"><stop offset="0" stop-opacity=".1"/><stop offset="1" stop-opacity="0"/></linearGradient><path fill="url(#i)" d="M8.56 13.44l-.005-.004c.274.272.445.648.445 1.064 0 .827-.673 1.5-1.5 1.5-.416 0-.792-.17-1.064-.445l.003.006 3.476 3.476L12 19.5l2.145-.477L8.56 13.44z"/><linearGradient id="j" x1="16.683" x2="19.499" y1="14.683" y2="17.499" gradientUnits="userSpaceOnUse"><stop offset="0" stop-opacity=".1"/><stop offset="1" stop-opacity="0"/></linearGradient><path fill="url(#j)" d="M17.56 13.44l-.005-.004c.274.272.445.648.445 1.064 0 .827-.673 1.5-1.5 1.5-.416 0-.792-.17-1.064-.445l.003.006 2.598 2.597 2.18-.484a.99.99 0 0 0 .756-.822l-3.412-3.413z"/><linearGradient id="k" x1=".871" x2="22.253" y1="7.343" y2="17.313" gradientUnits="userSpaceOnUse"><stop offset="0" stop-color="#FFF" stop-opacity=".2"/><stop offset="1" stop-color="#FFF" stop-opacity="0"/></linearGradient><path fill="url(#k)" d="M21 16.698V3a1 1 0 0 0-1-1h-4V1a1 1 0 0 0-1-1H9a1 1 0 0 0-1 1v1H4a1 1 0 0 0-1 1v13.698c0 .432.283.8.685.936L3 20l3.851.856L5.784 24H6.84l.339-1h9.642l.34 1h1.055l-1.067-3.144L21 20l-.685-2.366a.992.992 0 0 0 .685-.936zM16.481 22H7.52l.314-.926L12 22l4.167-.926.314.926z"/></svg>